<svg id="Layer_1" data-name="Layer 1" xmlns="http://www.w3.org/2000/svg" viewBox="0 0 822.04724 141.73228">
  <defs>
    <style>
      .cls-1 {
        fill: #fff;
      }
    </style>
  </defs>
  <path class="cls-1" d="M811.27256,29.418,775.3384,91.79466a4.21956,4.21956,0,0,1-7.31232,0L732.0915,29.418H708.32827l47.75528,82.89622h18.208L822.04724,29.418ZM342.00934,48.99148c0-7.96788,14.38351-11.37888,27.31942-11.37888,25.66592,0,40.52871,11.42675,40.52871,11.42675v-13.349s-13.89956-8.48325-40.52871-8.48325c-22.43194,0-46.03343,6.692-46.03343,24.99529,0,33.73738,71.97656,23.09493,71.97656,39.77721,0,6.053-10.04834,10.87073-29.86525,10.87073-26.28529,0-42.11131-12.80515-42.11131-12.80515v14.58749s16.65171,9.89243,42.11131,9.89243c21.675,0,49.95555-5.46545,49.95555-26.26672C415.36219,56.01386,342.00934,68.99837,342.00934,48.99148Zm-85.03091,63.32288h19.34231V29.418H256.97843ZM0,112.31436H85.65941V101.26151H19.3423V74.6002H74.60645v-11.053H19.3423V40.47078H85.65941V29.418H0Zm456.87706,0h85.6592V101.26151h-66.3169V74.6002h55.26415v-11.053H476.21936V40.47078h66.3169V29.418h-85.6592Zm132.63294,0h85.65961V101.26151H608.85272V74.6002h55.26415v-11.053H608.85272V40.47078h66.31689V29.418H589.51ZM151.97651,29.418H132.63378v82.89633H218.2934V101.26151H151.97651Z"/>
</svg>
